<?xml version="1.0" encoding="UTF-8"?>
<svg xmlns="http://www.w3.org/2000/svg" xmlns:xlink="http://www.w3.org/1999/xlink" xmlns:svgjs="http://svgjs.com/svgjs" version="1.1" width="512" height="512" x="0" y="0" viewBox="0 0 489.42 489.42" style="enable-background:new 0 0 512 512" xml:space="preserve" class="">
  <g>
<path xmlns="http://www.w3.org/2000/svg" d="M416.435,0h-49.801c-18.201,0-32.963,14.753-32.963,32.963v153.883H155.748V32.963c0-18.21-14.76-32.963-32.963-32.963  H72.982C54.781,0,40.02,14.753,40.02,32.963v423.494c0,18.209,14.761,32.963,32.962,32.963h49.803  c18.203,0,32.963-14.754,32.963-32.963V302.574h177.924v153.883c0,18.209,14.762,32.963,32.963,32.963h49.801  c18.203,0,32.965-14.754,32.965-32.963V32.963C449.4,14.753,434.638,0,416.435,0z" fill="#0e83b8" data-original="#000000" class=""/>















</g>
</svg>
